<svg xmlns="http://www.w3.org/2000/svg" viewBox="0 0 256 256">
    <path
        d="M53.6 10.5c-22.3 4.2-40.3 23.2-43.2 45.6-.3 2.6-.5 25.8-.4 74.9l.1 71.1 1.2 4.5c2.5 9 6.7 16.3 13.5 23.4 8.4 8.7 19.2 14.3 30.5 15.7 3.1.4 27.8.5 95.2.4l91-.1 1.2-1c.7-.5 1.7-1.5 2.2-2.2l1-1.2v-190l-1-1.2c-.5-.7-1.5-1.7-2.2-2.2-1.2-1-1.4-1-66.7-1.1l-65.4-.1-.3-1.2c-.6-2.3-3.6-8-6.3-12-3-4.5-8.3-10-12.9-13.5-4.4-3.4-12.4-7.2-17.8-8.6-5.8-1.8-14.3-2.2-19.7-1.2zm17.7 15.2c6.8 1.7 13.9 6.2 18.7 11.9 2.5 3 5.9 9.5 7.2 14.2 1 3.5 1 3.7 1.2 55.6l.2 52.1L96 157c-8.1-7.3-18.6-12.1-29.7-13.4-13.1-1.5-28.3 3.7-39 13.4l-2.7 2.4.1-52.1c.1-47.9.2-52.3 1-54.9C30.1 37.3 39.9 28 54.4 25.1c4.1-.6 12.8-.4 16.9.6zm160.2 120.7v84.9H97.1l2.7-2.9c5.4-5.8 9.8-13.8 12-21.9l1.2-4.5.1-70.3.1-70.2h118.2v84.9h.1zm-159.7 13c18.3 4.7 29.3 22.1 26.3 41.6-1.2 7.9-4.4 14.1-10.1 19.8-4.6 4.5-7.7 6.5-13.3 8.4-10.5 3.6-23.6 2.4-32.8-2.9-3.8-2.2-10.2-8.8-12.3-12.5-9.2-16.7-5-38.3 9.6-48.6 5.3-3.7 10.7-5.9 17.1-6.7 4.3-.6 11.2-.2 15.5.9z" />
    <path
        d="M56 170.2c-11.3 2.7-20.4 13.9-20.4 25.1 0 15.5 16.4 28.8 30.9 25.2 4.5-1.2 8.2-3.2 11.9-6.6 5.8-5.5 8.6-11.5 8.6-18.5s-2.8-12.9-8.6-18.5c-6.5-6.2-14.5-8.6-22.4-6.7zm9.6 14.8c2.6.7 4.8 2.8 5.9 5.4 1 2.4 1 7.9-.1 10.3-1.8 4.1-6.1 6.1-11.7 5.6-6-.6-9.4-4.4-9.4-10.9 0-7 3.8-11 10.7-11.1 1.3 0 3.3.3 4.6.7z" />
</svg>